<mxfile host="app.diagrams.net" modified="2024-02-12T09:33:45.883Z" agent="Mozilla/5.0 (Macintosh; Intel Mac OS X 10_15_7) AppleWebKit/537.36 (KHTML, like Gecko) Chrome/120.0.0.0 Safari/537.36" version="23.1.2" etag="IxOIntrMlFU15wcdHhzE" type="github">
  <diagram name="PÃ¡gina-1" id="cQMobTrcQBBiKqMLGmTv">
    <mxGraphModel>
      <root>
        <mxCell id="0" />
        <mxCell id="1" parent="0" />
      </root>
    </mxGraphModel>
  </diagram>
</mxfile>
